<svg width="22" height="23" viewBox="0 0 22 23" fill="none" xmlns="http://www.w3.org/2000/svg">
<path d="M20.3916 10.0887H1.6083C0.996187 10.0887 0.499969 10.8685 0.499969 11.8304V12.0138C0.499969 12.9757 0.996187 13.7555 1.6083 13.7555H20.3916C21.0037 13.7555 21.5 12.9757 21.5 12.0138V11.8304C21.5 10.8685 21.0037 10.0887 20.3916 10.0887Z" fill="#3B3C40"/>
<path d="M20.3916 19.2551H1.6083C0.996187 19.2551 0.499969 20.0349 0.499969 20.9968V21.1802C0.499969 22.1421 0.996187 22.9219 1.6083 22.9219H20.3916C21.0037 22.9219 21.5 22.1421 21.5 21.1802V20.9968C21.5 20.0349 21.0037 19.2551 20.3916 19.2551Z" fill="#3B3C40"/>
<path d="M20.3916 0.921875H1.6083C0.996187 0.921875 0.499969 1.70166 0.499969 2.66357V2.84691C0.499969 3.80883 0.996187 4.58861 1.6083 4.58861H20.3916C21.0037 4.58861 21.5 3.80883 21.5 2.84691V2.66357C21.5 1.70166 21.0037 0.921875 20.3916 0.921875Z" fill="#3B3C40"/>
</svg>
